<svg width="49" height="29" viewBox="0 0 49 29" fill="none" xmlns="http://www.w3.org/2000/svg">
<path d="M6.08276 24.1475L0.156677 24.1506L0.156174 23.21L6.08225 23.2068L6.08276 24.1475Z" fill="#3F3D56"/>
<path d="M48.3334 23.8479L47.1256 24.1409L1.2231 24.1667L0.810326 23.1581C0.0904274 21.4282 -0.156651 19.5224 0.0966721 17.6537C0.294369 16.2608 0.789764 14.8768 1.91495 14.2757L3.95195 0.0476539L29.3474 0L39.1728 8.31067C39.1728 8.31067 43.8076 8.2233 46.3256 11.5106C47.2339 12.733 47.7702 14.2138 47.8647 15.7603L47.964 17.4704L48.3334 23.8479Z" fill="#F46036"/>
<path d="M38.6667 29.0001C35.33 29.0001 32.625 26.2951 32.625 22.9584C32.625 19.6217 35.33 16.9167 38.6667 16.9167C42.0034 16.9167 44.7084 19.6217 44.7084 22.9584C44.7084 26.2951 42.0034 29.0001 38.6667 29.0001Z" fill="#3F3D56"/>
<path d="M39.2709 26.5834C37.6025 26.5834 36.25 25.2309 36.25 23.5626C36.25 21.8942 37.6025 20.5417 39.2709 20.5417C40.9392 20.5417 42.2917 21.8942 42.2917 23.5626C42.2917 25.2309 40.9392 26.5834 39.2709 26.5834Z" fill="#CCCCCC"/>
<path d="M10.2709 29.0001C7.26782 29.0001 4.83337 26.2951 4.83337 22.9584C4.83337 19.6217 7.26782 16.9167 10.2709 16.9167C13.2739 16.9167 15.7084 19.6217 15.7084 22.9584C15.7084 26.2951 13.2739 29.0001 10.2709 29.0001Z" fill="#3F3D56"/>
<path d="M10.2709 26.5834C8.60249 26.5834 7.25002 25.2309 7.25002 23.5626C7.25002 21.8942 8.60249 20.5417 10.2709 20.5417C11.9392 20.5417 13.2917 21.8942 13.2917 23.5626C13.2917 25.2309 11.9392 26.5834 10.2709 26.5834Z" fill="#CCCCCC"/>
<path d="M36.2501 7.24319L21.697 7.24823H19.9204L16.9212 7.25008V7.06852L16.9189 4.87967L16.9167 2.42205H18.9124L20.6889 2.42046L23.8357 2.4186H25.6122L29.2452 2.41675L36.2501 7.24319Z" fill="white"/>
<path d="M14.5001 7.24663L7.25397 7.25008L7.25217 5.9972V3.80751L7.25006 2.4202H8.31109L9.9848 2.41833L14.4979 2.41675L14.5001 7.24663Z" fill="white"/>
<path d="M18.2113 13.4175L17.2707 13.418L17.2697 11.6307L18.2104 11.6302L18.2113 13.4175Z" fill="#3F3D56"/>
<path d="M31.9429 10.0239L31.9424 9.08325L33.7296 9.0823L33.7301 10.023L31.9429 10.0239Z" fill="#3F3D56"/>
<path d="M32.6011 9.49683L32.7046 9.49677C32.9628 9.49663 33.2184 9.44563 33.4569 9.34671C33.6953 9.24778 33.912 9.10287 34.0945 8.92021C34.2769 8.73756 34.4216 8.52075 34.5203 8.28218C34.6189 8.04361 34.6697 7.78793 34.6695 7.52976C34.6694 7.27158 34.6184 7.01598 34.5195 6.77751C34.4205 6.53904 34.2756 6.32239 34.093 6.13993C33.9103 5.95748 33.6935 5.81277 33.4549 5.7141C33.2164 5.61543 32.9607 5.56472 32.7025 5.56486L32.599 5.56492L32.6011 9.49683Z" fill="#3F3D56"/>
<path d="M48.3334 16.9017C47.5676 16.9665 46.797 16.8189 46.1573 16.4851C45.5175 16.1512 45.0498 15.6524 44.8364 15.0766C44.623 14.5007 44.6777 13.8848 44.9907 13.3372C45.3038 12.7896 45.8552 12.3456 46.5478 12.0833C47.5377 13.0715 48.1221 14.2687 48.2251 15.5191L48.3334 16.9017Z" fill="#3F3D56"/>
</svg>
