<svg width="356" height="375" viewBox="0 0 356 375" fill="none" xmlns="http://www.w3.org/2000/svg">
<path d="M347.425 151.982C325.369 65.2193 249.161 2.58852 159.71 0.0764548C112.42 -1.2516 62.6572 14.4391 26.4263 69.3468C-38.3402 167.5 30.4064 235.327 78.3347 267.557C101.49 283.16 122.354 301.92 140.323 323.295C172.697 361.729 234.977 409.487 309.15 334.657C362.91 280.419 362.115 209.775 347.425 151.982Z" fill="#F2F2F2"/>
<path d="M67.4954 213.875L67.8378 214.547L68.51 214.204L69.9542 213.468L70.626 213.126L70.2838 212.454C68.8103 209.561 67.4408 206.572 66.213 203.571L65.9273 202.873L65.2291 203.159L63.7295 203.773L63.032 204.059L63.3173 204.756C64.577 207.837 65.9828 210.905 67.4954 213.875ZM59.9091 195.323L60.1358 196.043L60.8554 195.816L62.4009 195.328L63.1199 195.101L62.8933 194.382C61.9188 191.289 61.062 188.115 60.3469 184.95L60.1806 184.214L59.4447 184.381L57.8636 184.738L57.1282 184.905L57.2945 185.64C58.0291 188.889 58.9086 192.147 59.9091 195.323ZM55.4912 175.774L55.5961 176.521L56.3431 176.416L57.948 176.191L58.6947 176.086L58.5899 175.339C58.1397 172.132 57.8165 168.86 57.6301 165.616L57.5869 164.862L56.8337 164.906L55.2154 164.999L54.4625 165.043L54.5059 165.796C54.6978 169.125 55.029 172.482 55.4912 175.774ZM56.6925 156.579L57.4464 156.597L57.4642 155.843C57.5409 152.593 57.752 149.313 58.0917 146.094L58.1709 145.344L57.4209 145.264L55.8089 145.094L55.0587 145.015L54.9796 145.765C54.6313 149.069 54.4147 152.435 54.3363 155.769L54.3186 156.523L55.0727 156.541L56.6925 156.579ZM58.6336 137.03L59.3747 137.171L59.5154 136.43C60.1204 133.243 60.8663 130.042 61.7327 126.917L61.9342 126.19L61.2074 125.988L59.6453 125.555L58.9184 125.354L58.717 126.081C57.8279 129.289 57.0623 132.574 56.4412 135.846L56.3005 136.587L57.0415 136.728L58.6336 137.03ZM63.762 118.066L64.4697 118.328L64.7309 117.62C65.8541 114.576 67.1197 111.54 68.4925 108.598L68.8113 107.915L68.128 107.596L66.6593 106.91L65.9757 106.591L65.6567 107.275C64.2477 110.295 62.9486 113.411 61.7955 116.537L61.5345 117.244L62.2419 117.505L63.762 118.066ZM285.28 112.641L285.573 113.336L286.268 113.042L287.761 112.412L288.456 112.119L288.163 111.424C286.871 108.359 285.433 105.308 283.889 102.354L283.54 101.685L282.871 102.035L281.435 102.786L280.767 103.136L281.116 103.804C282.62 106.681 284.021 109.654 285.28 112.641ZM72.6125 100.573L72.9867 99.9185C74.5955 97.1033 76.3433 94.3181 78.1805 91.6404L78.607 91.0188L77.9857 90.592L76.6499 89.6744L76.028 89.2472L75.601 89.8694C73.715 92.6175 71.9216 95.4757 70.27 98.3658L69.8959 99.0206L70.5506 99.3948L71.9576 100.199L72.6125 100.573ZM276.237 95.3404L276.64 95.978L277.278 95.5742L278.647 94.707L279.284 94.3036L278.881 93.6665C277.101 90.8542 275.182 88.0804 273.176 85.4219L272.721 84.8196L272.119 85.2742L270.825 86.251L270.224 86.7054L270.678 87.3073C272.632 89.8972 274.503 92.6002 276.237 95.3404ZM82.9756 83.926L83.5604 84.4027L84.0369 83.8177C86.0861 81.3017 88.2652 78.8402 90.513 76.5011L91.0354 75.9575L90.492 75.4349L89.324 74.3115L88.7802 73.7886L88.2573 74.3325C85.9502 76.7329 83.7144 79.2586 81.6107 81.8406L81.1344 82.4252L81.7189 82.9016L82.9756 83.926ZM264.479 79.7562L264.981 80.3195L265.544 79.8168L266.753 78.737L267.316 78.2349L266.814 77.6724C264.597 75.1871 262.25 72.7638 259.839 70.4694L259.292 69.9493L258.772 70.4961L257.655 71.6709L257.136 72.2173L257.682 72.737C260.032 74.9726 262.319 77.3342 264.479 79.7562ZM96.5007 69.6736L96.9999 70.2393L97.5654 69.7399C99.9968 67.5932 102.547 65.5207 105.147 63.5797L105.751 63.1285L105.3 62.5242L104.331 61.2252L103.879 60.6205L103.275 61.0719C100.607 63.0637 97.9898 65.1908 95.4947 67.394L94.9295 67.8931L95.4284 68.4584L96.5007 69.6736ZM250.334 66.2979L250.921 66.7715L251.395 66.1838L252.412 64.9212L252.884 64.334L252.297 63.8609C249.705 61.7707 246.994 59.7632 244.24 57.8929L243.616 57.4689L243.192 58.0935L242.282 59.4353L241.859 60.0592L242.483 60.4827C245.166 62.3045 247.808 64.2613 250.334 66.2979ZM112.166 57.824L112.566 58.4636L113.205 58.0635C115.956 56.3424 118.81 54.716 121.688 53.2302L122.358 52.8843L122.013 52.2142L121.27 50.7735L120.924 50.1028L120.253 50.449C117.299 51.9745 114.369 53.6436 111.546 55.4104L110.906 55.8104L111.306 56.4497L112.166 57.824ZM234.181 55.3324L234.838 55.7033L235.208 55.0461L236.005 53.6338L236.375 52.977L235.718 52.6064C232.815 50.9675 229.811 49.4314 226.79 48.0409L226.105 47.7254L225.789 48.411L225.112 49.8842L224.797 50.5693L225.482 50.8845C228.425 52.2386 231.351 53.7352 234.181 55.3324ZM129.554 48.7072L129.843 49.4037L130.54 49.1143C133.533 47.8703 136.615 46.7372 139.698 45.7465L140.416 45.5159L140.186 44.798L139.69 43.2543L139.46 42.5359L138.741 42.7667C135.575 43.784 132.412 44.9474 129.339 46.2243L128.642 46.5137L128.932 47.2102L129.554 48.7072ZM216.445 47.171L217.154 47.4285L217.412 46.7194L217.965 45.1955L218.222 44.4867L217.513 44.2293C214.384 43.0929 211.168 42.0741 207.953 41.201L207.225 41.0033L207.027 41.7311L206.602 43.2953L206.405 44.0232L207.133 44.2209C210.264 45.0716 213.398 46.0643 216.445 47.171ZM148.404 40.0993L147.67 40.2696L147.84 41.0041L148.186 42.4995V43.3624L149.111 43.1481C152.266 42.4166 155.495 41.8077 158.707 41.3381L159.453 41.229L159.344 40.4828L159.11 38.8786L159.001 38.1322L158.254 38.2413C154.957 38.7232 151.643 39.3481 148.404 40.0993ZM197.607 42.0539L198.349 42.1907L198.486 41.4488L198.779 39.8544L198.916 39.1129L198.174 38.9761C194.907 38.3735 191.568 37.8999 188.249 37.5678L187.499 37.4926L187.424 38.2432L187.262 39.8565L187.187 40.607L187.938 40.6821C191.171 41.0054 194.424 41.4671 197.607 42.0539ZM167.619 39.6201L167.666 40.3728L168.419 40.3253C171.652 40.1216 174.945 40.048 178.186 40.1074L178.941 40.1212L178.954 39.3669L178.983 37.7457L178.997 36.9916L178.243 36.9779C174.92 36.9178 171.539 36.9923 168.222 37.2018L167.469 37.2493L167.517 38.002L167.619 39.6201Z" fill="#3F3D56" stroke="#3F3D56" stroke-width="1.50847"/>
<path d="M296.104 167.55L219.888 243.766L221.033 244.912L297.249 168.696L296.104 167.55Z" fill="#3F3D56"/>
<path d="M196.484 254.106H105.5V255.336H196.484V254.106Z" fill="#3F3D56"/>
<path d="M211.239 270.09C208.32 270.09 205.468 269.225 203.042 267.603C200.615 265.982 198.724 263.678 197.607 260.982C196.491 258.286 196.199 255.319 196.768 252.457C197.337 249.595 198.742 246.966 200.806 244.903C202.869 242.84 205.498 241.434 208.36 240.865C211.222 240.296 214.189 240.588 216.885 241.705C219.581 242.821 221.885 244.712 223.506 247.139C225.127 249.565 225.993 252.418 225.993 255.336C225.988 259.247 224.433 262.998 221.667 265.764C218.901 268.53 215.15 270.086 211.239 270.09ZM211.239 242.178C208.636 242.178 206.092 242.949 203.928 244.395C201.764 245.841 200.078 247.896 199.082 250.3C198.086 252.705 197.825 255.35 198.333 257.903C198.841 260.455 200.094 262.8 201.934 264.64C203.774 266.48 206.119 267.733 208.672 268.241C211.224 268.749 213.87 268.488 216.274 267.492C218.678 266.496 220.733 264.81 222.179 262.646C223.625 260.482 224.397 257.938 224.397 255.336C224.393 251.847 223.005 248.503 220.538 246.036C218.072 243.569 214.727 242.181 211.239 242.178Z" fill="#3F3D56"/>
<path d="M72.3034 138.532C68.7513 138.532 65.2339 139.229 61.9521 140.584C58.6703 141.939 55.6885 143.925 53.1767 146.428C50.6649 148.931 48.6725 151.903 47.3131 155.174C45.9538 158.444 45.2541 161.95 45.2542 165.49C45.2542 180.379 72.3034 229.516 72.3034 229.516C72.3034 229.516 99.3527 180.379 99.3527 165.49C99.3527 161.95 98.653 158.444 97.2937 155.174C95.9343 151.903 93.9419 148.931 91.4301 146.428C88.9184 143.925 85.9365 141.939 82.6547 140.584C79.373 139.229 75.8556 138.532 72.3034 138.532ZM72.3034 179.643C69.4948 179.643 66.7492 178.813 64.4139 177.258C62.0785 175.703 60.2584 173.492 59.1836 170.906C58.1087 168.32 57.8275 165.474 58.3754 162.729C58.9234 159.984 60.2759 157.462 62.2619 155.482C64.2479 153.503 66.7783 152.155 69.533 151.609C72.2877 151.063 75.143 151.343 77.7378 152.415C80.3327 153.486 82.5506 155.3 84.111 157.627C85.6714 159.955 86.5043 162.691 86.5043 165.49C86.5043 169.244 85.0081 172.844 82.3449 175.498C79.6818 178.152 76.0697 179.643 72.3034 179.643Z" fill="#F46036"/>
<path d="M296.075 43.8595C288.901 43.8595 282.021 46.6997 276.948 51.7554C271.875 56.811 269.026 63.6679 269.026 70.8177C269.026 85.7063 296.075 134.843 296.075 134.843C296.075 134.843 323.124 85.7063 323.124 70.8177C323.124 67.2775 322.425 63.772 321.065 60.5012C319.706 57.2305 317.713 54.2587 315.202 51.7553C312.69 49.252 309.708 47.2663 306.426 45.9116C303.144 44.5568 299.627 43.8595 296.075 43.8595ZM296.075 84.9707C293.266 84.9707 290.521 84.1407 288.185 82.5855C285.85 81.0304 284.03 78.82 282.955 76.2338C281.88 73.6477 281.599 70.802 282.147 68.0566C282.695 65.3112 284.047 62.7893 286.033 60.81C288.019 58.8307 290.55 57.4827 293.304 56.9366C296.059 56.3905 298.914 56.6708 301.509 57.742C304.104 58.8132 306.322 60.6272 307.882 62.9547C309.443 65.2822 310.276 68.0185 310.276 70.8177C310.276 74.5713 308.78 78.1712 306.116 80.8254C303.453 83.4796 299.841 84.9707 296.075 84.9707Z" fill="#F46036"/>
<path d="M317.546 170.878L325.618 170.883L325.618 169.602L317.547 169.597L317.546 170.878Z" fill="#3F3D56"/>
<path d="M259.189 169.886L260.855 170.272L324.144 170.305L324.713 168.979C325.706 166.705 326.047 164.199 325.697 161.742C325.425 159.911 324.742 158.092 323.19 157.301L320.382 138.595L285.367 138.532L271.82 149.459C271.82 149.459 265.429 149.344 261.958 153.666C260.705 155.273 259.966 157.22 259.836 159.253L259.699 161.501L259.189 169.886Z" fill="#F46036"/>
<path d="M273.09 177.389C277.407 177.389 280.906 173.89 280.906 169.574C280.906 165.257 277.407 161.758 273.09 161.758C268.774 161.758 265.275 165.257 265.275 169.574C265.275 173.89 268.774 177.389 273.09 177.389Z" fill="#3F3D56"/>
<path d="M273.091 173.687C275.362 173.687 277.204 171.845 277.204 169.573C277.204 167.302 275.362 165.46 273.091 165.46C270.819 165.46 268.977 167.302 268.977 169.573C268.977 171.845 270.819 173.687 273.091 173.687Z" fill="#CCCCCC"/>
<path d="M311.653 177.409C315.97 177.409 319.469 173.91 319.469 169.594C319.469 165.278 315.97 161.779 311.653 161.779C307.337 161.779 303.838 165.278 303.838 169.594C303.838 173.91 307.337 177.409 311.653 177.409Z" fill="#3F3D56"/>
<path d="M311.653 173.707C313.925 173.707 315.767 171.866 315.767 169.594C315.767 167.322 313.925 165.481 311.653 165.481C309.382 165.481 307.54 167.322 307.54 169.594C307.54 171.866 309.382 173.707 311.653 173.707Z" fill="#CCCCCC"/>
<path d="M277.202 148.181L296.107 148.189H298.415L302.311 148.192V147.908L302.314 144.482L302.317 140.634H299.725L297.417 140.632L293.329 140.629H291.021L286.302 140.626L277.202 148.181Z" fill="white"/>
<path d="M305.388 148.195L315.379 148.201L315.382 146.24V142.814L315.385 140.643H313.922L311.614 140.64L305.391 140.637L305.388 148.195Z" fill="white"/>
<path d="M301.027 156.264L302.308 156.265L302.309 153.831L301.028 153.83L301.027 156.264Z" fill="#3F3D56"/>
<path d="M282.325 151.642L282.325 150.361L279.891 150.36L279.89 151.641L282.325 151.642Z" fill="#3F3D56"/>
<path d="M281.428 150.924L281.287 150.924C280.935 150.924 280.587 150.854 280.262 150.72C279.937 150.585 279.642 150.388 279.394 150.139C279.145 149.89 278.948 149.595 278.814 149.27C278.679 148.945 278.61 148.597 278.611 148.245C278.611 147.893 278.68 147.545 278.815 147.22C278.95 146.896 279.147 146.601 279.396 146.352C279.645 146.104 279.94 145.907 280.265 145.772C280.59 145.638 280.938 145.569 281.29 145.569L281.431 145.569L281.428 150.924Z" fill="#3F3D56"/>
<path d="M259.699 161.501C260.668 161.607 261.643 161.367 262.452 160.824C263.261 160.281 263.853 159.47 264.123 158.533C264.393 157.597 264.324 156.595 263.928 155.705C263.532 154.814 262.834 154.092 261.958 153.666C260.705 155.273 259.966 157.22 259.836 159.253L259.699 161.501Z" fill="#3F3D56"/>
<path d="M297.417 140.632L302.311 147.908L302.314 144.482L299.725 140.635L297.417 140.632Z" fill="#F2F2F2"/>
<path d="M311.614 140.64L315.382 146.24V142.814L313.922 140.643L311.614 140.64Z" fill="#F2F2F2"/>
<path d="M291.021 140.629L296.108 148.189H298.415L293.329 140.629H291.021Z" fill="#F2F2F2"/>
<path d="M55.9981 266.78L47.9268 266.785L47.9261 265.504L55.9974 265.499L55.9981 266.78Z" fill="#3F3D56"/>
<path d="M114.354 265.788L112.689 266.173L49.3997 266.207L48.8306 264.881C47.838 262.607 47.4973 260.101 47.8466 257.644C48.1192 255.813 48.8022 253.993 50.3536 253.203L53.1622 234.496L88.177 234.434L101.724 245.36C101.724 245.36 108.114 245.246 111.586 249.568C112.839 251.175 113.578 253.122 113.708 255.155L113.845 257.403L114.354 265.788Z" fill="#F46036"/>
<path d="M100.454 273.29C96.1378 273.29 92.6389 269.791 92.6389 265.475C92.6389 261.159 96.1378 257.66 100.454 257.66C104.77 257.66 108.269 261.159 108.269 265.475C108.269 269.791 104.77 273.29 100.454 273.29Z" fill="#3F3D56"/>
<path d="M100.454 269.588C98.1823 269.588 96.3407 267.747 96.3407 265.475C96.3407 263.204 98.1823 261.362 100.454 261.362C102.726 261.362 104.567 263.204 104.567 265.475C104.567 267.747 102.726 269.588 100.454 269.588Z" fill="#CCCCCC"/>
<path d="M61.8912 273.311C57.575 273.311 54.0761 269.812 54.0761 265.496C54.0761 261.18 57.575 257.681 61.8912 257.681C66.2074 257.681 69.7063 261.18 69.7063 265.496C69.7063 269.812 66.2074 273.311 61.8912 273.311Z" fill="#3F3D56"/>
<path d="M61.8909 269.609C59.6193 269.609 57.7777 267.768 57.7777 265.496C57.7777 263.224 59.6193 261.383 61.8909 261.383C64.1626 261.383 66.0042 263.224 66.0042 265.496C66.0042 267.768 64.1626 269.609 61.8909 269.609Z" fill="#CCCCCC"/>
<path d="M96.3416 244.084L77.4365 244.092H75.1287L71.2325 244.094V243.81L71.2296 240.384L71.2267 236.537H73.8192L76.127 236.534L80.2148 236.531H82.5226L87.2419 236.528L96.3416 244.084Z" fill="white"/>
<path d="M68.1565 244.097L58.1652 244.103L58.1627 242.142V238.716L58.1598 236.545H59.6228L61.9306 236.542L68.1536 236.539L68.1565 244.097Z" fill="white"/>
<path d="M72.5175 252.166L71.2363 252.167L71.235 249.733L72.5162 249.732L72.5175 252.166Z" fill="#3F3D56"/>
<path d="M91.2199 247.544L91.2192 246.263L93.6534 246.262L93.6541 247.543L91.2199 247.544Z" fill="#3F3D56"/>
<path d="M92.1165 246.826L92.2574 246.826C92.609 246.826 92.9572 246.756 93.282 246.622C93.6068 246.487 93.9018 246.29 94.1504 246.041C94.3989 245.792 94.5959 245.497 94.7303 245.172C94.8647 244.847 94.9338 244.499 94.9336 244.147C94.9334 243.795 94.864 243.447 94.7292 243.122C94.5945 242.798 94.3971 242.503 94.1483 242.254C93.8996 242.006 93.6043 241.808 93.2793 241.674C92.9544 241.54 92.6062 241.471 92.2545 241.471L92.1136 241.471L92.1165 246.826Z" fill="#3F3D56"/>
<path d="M113.846 257.403C112.877 257.509 111.902 257.269 111.093 256.726C110.283 256.183 109.691 255.372 109.421 254.435C109.152 253.499 109.221 252.497 109.617 251.607C110.013 250.716 110.71 249.994 111.587 249.568C112.839 251.175 113.578 253.122 113.709 255.155L113.846 257.403Z" fill="#3F3D56"/>
<path d="M76.1272 236.534L71.2328 243.81L71.2299 240.383L73.8194 236.536L76.1272 236.534Z" fill="#F2F2F2"/>
<path d="M61.9307 236.542L58.1628 242.142V238.716L59.6229 236.545L61.9307 236.542Z" fill="#F2F2F2"/>
<path d="M82.5227 236.531L77.4366 244.091H75.1288L80.2149 236.531H82.5227Z" fill="#F2F2F2"/>
<path d="M160.652 205.153C166.068 205.153 170.458 200.763 170.458 195.348C170.458 189.932 166.068 185.542 160.652 185.542C155.237 185.542 150.847 189.932 150.847 195.348C150.847 200.763 155.237 205.153 160.652 205.153Z" fill="#A4A2BA"/>
<path d="M222.5 162.915C227.915 162.915 232.305 158.525 232.305 153.11C232.305 147.695 227.915 143.305 222.5 143.305C217.085 143.305 212.695 147.695 212.695 153.11C212.695 158.525 217.085 162.915 222.5 162.915Z" fill="#A4A2BA"/>
<path d="M145.568 123.695C150.983 123.695 155.373 119.305 155.373 113.89C155.373 108.475 150.983 104.085 145.568 104.085C140.153 104.085 135.763 108.475 135.763 113.89C135.763 119.305 140.153 123.695 145.568 123.695Z" fill="#A4A2BA"/>
<path d="M313.844 274.542L312.977 274.216C312.786 274.144 293.822 266.843 284.939 250.289C276.055 233.734 280.405 213.802 280.45 213.603L280.655 212.695L281.521 213.021C281.712 213.094 300.675 220.394 309.559 236.948C318.443 253.503 314.093 273.436 314.048 273.635L313.844 274.542ZM286.361 249.518C293.872 263.515 308.858 270.689 312.655 272.327C313.377 268.238 315.641 251.702 308.137 237.719C300.634 223.738 285.642 216.552 281.843 214.91C281.121 219.001 278.858 235.536 286.361 249.518Z" fill="#3F3D56"/>
<path d="M291.113 244.094C307.293 254.073 313.524 273.894 313.524 273.894C313.524 273.894 293.523 277.536 277.343 267.557C261.164 257.578 254.932 237.757 254.932 237.757C254.932 237.757 274.933 234.115 291.113 244.094Z" fill="#F46036"/>
<path d="M61.9228 329.421C63.9844 329.421 65.4426 329.22 66.2974 328.818C67.1522 328.415 67.5796 327.636 67.5796 326.48C67.5796 325.575 67.0265 324.795 65.9203 324.141C64.814 323.437 63.1296 322.658 60.8669 321.803C59.107 321.15 57.4979 320.471 56.0397 319.767C54.6318 319.063 53.4251 318.233 52.4194 317.278C51.4138 316.272 50.6344 315.091 50.0813 313.733C49.5282 312.375 49.2516 310.741 49.2516 308.83C49.2516 305.11 50.6344 302.168 53.3999 300.006C56.1655 297.844 59.9618 296.763 64.7889 296.763C67.2025 296.763 69.5155 296.989 71.7279 297.441C73.9403 297.844 75.7002 298.296 77.0075 298.799L75.0465 307.548C73.7392 307.096 72.3061 306.693 70.7474 306.341C69.2389 305.989 67.5293 305.813 65.6186 305.813C62.0988 305.813 60.3389 306.794 60.3389 308.755C60.3389 309.208 60.4143 309.61 60.5652 309.962C60.716 310.314 61.0177 310.666 61.4703 311.018C61.9228 311.319 62.5262 311.671 63.2804 312.074C64.0849 312.426 65.0906 312.828 66.2974 313.28C68.7612 314.186 70.7977 315.091 72.4067 315.996C74.0157 316.85 75.2728 317.806 76.1779 318.862C77.1332 319.867 77.7869 320.999 78.1389 322.256C78.5412 323.513 78.7423 324.971 78.7423 326.63C78.7423 330.552 77.259 333.519 74.2923 335.53C71.3759 337.542 67.2276 338.547 61.8474 338.547C58.3276 338.547 55.3861 338.246 53.0228 337.642C50.7098 337.039 49.1008 336.536 48.1957 336.134L50.0813 327.008C51.992 327.762 53.953 328.365 55.9643 328.818C57.9756 329.22 59.9618 329.421 61.9228 329.421ZM85.2552 317.957C85.2552 314.437 85.7832 311.37 86.8391 308.755C87.9454 306.09 89.3784 303.878 91.1383 302.118C92.8982 300.358 94.9095 299.025 97.1722 298.12C99.4852 297.215 101.848 296.763 104.262 296.763C109.894 296.763 114.344 298.497 117.612 301.967C120.88 305.386 122.515 310.439 122.515 317.127C122.515 317.781 122.489 318.51 122.439 319.314C122.389 320.069 122.339 320.747 122.288 321.351H96.7951C97.0465 323.664 98.1276 325.499 100.038 326.857C101.949 328.214 104.513 328.893 107.732 328.893C109.793 328.893 111.804 328.717 113.765 328.365C115.777 327.963 117.411 327.485 118.668 326.932L120.176 336.058C119.573 336.36 118.769 336.662 117.763 336.963C116.757 337.265 115.626 337.517 114.369 337.718C113.162 337.969 111.855 338.17 110.447 338.321C109.039 338.472 107.631 338.547 106.223 338.547C102.653 338.547 99.5355 338.019 96.8705 336.963C94.2558 335.908 92.0685 334.475 90.3086 332.664C88.599 330.804 87.3168 328.617 86.462 326.102C85.6575 323.588 85.2552 320.873 85.2552 317.957ZM111.654 313.658C111.603 312.702 111.427 311.772 111.126 310.867C110.874 309.962 110.447 309.157 109.843 308.453C109.29 307.749 108.561 307.171 107.656 306.719C106.801 306.266 105.72 306.04 104.413 306.04C103.156 306.04 102.075 306.266 101.17 306.719C100.265 307.121 99.5103 307.674 98.9069 308.378C98.3035 309.082 97.8259 309.912 97.4739 310.867C97.1722 311.772 96.9459 312.702 96.7951 313.658H111.654ZM129.302 317.957C129.302 314.437 129.829 311.37 130.885 308.755C131.992 306.09 133.425 303.878 135.185 302.118C136.944 300.358 138.956 299.025 141.218 298.12C143.531 297.215 145.895 296.763 148.308 296.763C153.94 296.763 158.39 298.497 161.658 301.967C164.927 305.386 166.561 310.439 166.561 317.127C166.561 317.781 166.536 318.51 166.485 319.314C166.435 320.069 166.385 320.747 166.335 321.351H140.841C141.093 323.664 142.174 325.499 144.085 326.857C145.995 328.214 148.56 328.893 151.778 328.893C153.839 328.893 155.851 328.717 157.812 328.365C159.823 327.963 161.457 327.485 162.714 326.932L164.223 336.058C163.619 336.36 162.815 336.662 161.809 336.963C160.804 337.265 159.672 337.517 158.415 337.718C157.208 337.969 155.901 338.17 154.493 338.321C153.085 338.472 151.677 338.547 150.269 338.547C146.699 338.547 143.582 338.019 140.917 336.963C138.302 335.908 136.115 334.475 134.355 332.664C132.645 330.804 131.363 328.617 130.508 326.102C129.704 323.588 129.302 320.873 129.302 317.957ZM155.7 313.658C155.65 312.702 155.474 311.772 155.172 310.867C154.92 309.962 154.493 309.157 153.89 308.453C153.337 307.749 152.607 307.171 151.702 306.719C150.848 306.266 149.766 306.04 148.459 306.04C147.202 306.04 146.121 306.266 145.216 306.719C144.311 307.121 143.557 307.674 142.953 308.378C142.35 309.082 141.872 309.912 141.52 310.867C141.218 311.772 140.992 312.702 140.841 313.658H155.7ZM176.44 337.491V285.223H207.967V291.483H183.756V307.247H205.252V313.431H183.756V337.491H176.44ZM228.265 338.246C223.94 338.145 220.873 337.215 219.063 335.455C217.253 333.695 216.348 330.955 216.348 327.234V280.169L223.362 278.963V326.102C223.362 327.259 223.463 328.214 223.664 328.969C223.865 329.723 224.192 330.326 224.644 330.779C225.097 331.231 225.7 331.583 226.454 331.835C227.209 332.036 228.139 332.212 229.245 332.363L228.265 338.246ZM234.935 317.957C234.935 314.487 235.438 311.47 236.443 308.906C237.449 306.291 238.781 304.129 240.441 302.419C242.1 300.71 244.011 299.428 246.173 298.573C248.335 297.718 250.548 297.291 252.81 297.291C258.09 297.291 262.138 298.95 264.953 302.269C267.769 305.537 269.177 310.54 269.177 317.278C269.177 317.58 269.177 317.982 269.177 318.485C269.177 318.937 269.152 319.365 269.102 319.767H242.251C242.553 323.84 243.734 326.932 245.796 329.044C247.857 331.156 251.075 332.212 255.45 332.212C257.914 332.212 259.975 332.011 261.635 331.608C263.344 331.156 264.627 330.728 265.481 330.326L266.462 336.209C265.607 336.662 264.099 337.139 261.937 337.642C259.825 338.145 257.411 338.397 254.696 338.397C251.277 338.397 248.31 337.894 245.796 336.888C243.332 335.832 241.296 334.399 239.687 332.589C238.077 330.779 236.871 328.642 236.066 326.178C235.312 323.664 234.935 320.923 234.935 317.957ZM261.861 314.11C261.911 310.942 261.107 308.353 259.448 306.341C257.838 304.28 255.601 303.249 252.735 303.249C251.126 303.249 249.693 303.576 248.436 304.23C247.229 304.833 246.198 305.637 245.343 306.643C244.488 307.649 243.81 308.805 243.307 310.113C242.854 311.42 242.553 312.752 242.402 314.11H261.861ZM277.066 317.957C277.066 314.487 277.569 311.47 278.575 308.906C279.58 306.291 280.913 304.129 282.572 302.419C284.231 300.71 286.142 299.428 288.304 298.573C290.466 297.718 292.679 297.291 294.941 297.291C300.221 297.291 304.269 298.95 307.085 302.269C309.9 305.537 311.308 310.54 311.308 317.278C311.308 317.58 311.308 317.982 311.308 318.485C311.308 318.937 311.283 319.365 311.233 319.767H284.382C284.684 323.84 285.865 326.932 287.927 329.044C289.989 331.156 293.207 332.212 297.581 332.212C300.045 332.212 302.107 332.011 303.766 331.608C305.476 331.156 306.758 330.728 307.613 330.326L308.593 336.209C307.738 336.662 306.23 337.139 304.068 337.642C301.956 338.145 299.542 338.397 296.827 338.397C293.408 338.397 290.441 337.894 287.927 336.888C285.463 335.832 283.427 334.399 281.818 332.589C280.209 330.779 279.002 328.642 278.197 326.178C277.443 323.664 277.066 320.923 277.066 317.957ZM303.992 314.11C304.043 310.942 303.238 308.353 301.579 306.341C299.97 304.28 297.732 303.249 294.866 303.249C293.257 303.249 291.824 303.576 290.567 304.23C289.36 304.833 288.329 305.637 287.475 306.643C286.62 307.649 285.941 308.805 285.438 310.113C284.986 311.42 284.684 312.752 284.533 314.11H303.992ZM327.946 298.271H342.805V304.154H327.946V322.256C327.946 324.217 328.097 325.851 328.399 327.158C328.701 328.415 329.153 329.421 329.757 330.175C330.36 330.879 331.114 331.382 332.019 331.684C332.924 331.986 333.98 332.136 335.187 332.136C337.299 332.136 338.983 331.91 340.24 331.458C341.548 330.955 342.453 330.603 342.956 330.402L344.313 336.209C343.609 336.561 342.377 336.989 340.618 337.491C338.858 338.045 336.846 338.321 334.584 338.321C331.919 338.321 329.706 337.994 327.946 337.341C326.237 336.637 324.854 335.606 323.798 334.248C322.742 332.891 321.988 331.231 321.535 329.27C321.133 327.259 320.932 324.946 320.932 322.331V287.335L327.946 286.128V298.271Z" fill="#F46036"/>
</svg>
