<svg width="496" height="515" viewBox="0 0 496 515" fill="none" xmlns="http://www.w3.org/2000/svg">
<g filter="url(#filter0_d)">
<path d="M417.425 217.982C395.369 131.219 319.162 68.5885 229.71 66.0765C182.42 64.7484 132.657 80.4391 96.4263 135.347C31.6598 233.5 100.406 301.327 148.335 333.557C171.49 349.16 192.354 367.92 210.323 389.295C242.697 427.729 304.977 475.487 379.15 400.657C432.91 346.419 432.115 275.775 417.425 217.982Z" fill="#F2F2F2"/>
</g>
<path d="M137.495 279.875L137.838 280.547L138.51 280.204L139.954 279.468L140.626 279.126L140.284 278.454C138.81 275.561 137.441 272.572 136.213 269.571L135.927 268.873L135.229 269.159L133.729 269.773L133.032 270.059L133.317 270.756C134.577 273.837 135.983 276.905 137.495 279.875ZM129.909 261.323L130.136 262.043L130.855 261.816L132.401 261.328L133.12 261.101L132.893 260.382C131.919 257.289 131.062 254.115 130.347 250.95L130.181 250.214L129.445 250.381L127.864 250.738L127.128 250.905L127.294 251.64C128.029 254.889 128.909 258.147 129.909 261.323ZM125.491 241.774L125.596 242.521L126.343 242.416L127.948 242.191L128.695 242.086L128.59 241.339C128.14 238.132 127.817 234.86 127.63 231.616L127.587 230.862L126.834 230.906L125.215 230.999L124.462 231.043L124.506 231.796C124.698 235.125 125.029 238.482 125.491 241.774ZM126.692 222.579L127.446 222.597L127.464 221.843C127.541 218.593 127.752 215.313 128.092 212.094L128.171 211.344L127.421 211.264L125.809 211.094L125.059 211.015L124.98 211.765C124.631 215.069 124.415 218.435 124.336 221.769L124.319 222.523L125.073 222.541L126.692 222.579ZM128.634 203.03L129.375 203.171L129.515 202.43C130.12 199.243 130.866 196.042 131.733 192.917L131.934 192.19L131.207 191.988L129.645 191.555L128.918 191.354L128.717 192.081C127.828 195.289 127.062 198.574 126.441 201.846L126.301 202.587L127.041 202.728L128.634 203.03ZM133.762 184.066L134.47 184.328L134.731 183.62C135.854 180.576 137.12 177.54 138.493 174.598L138.811 173.915L138.128 173.596L136.659 172.91L135.976 172.591L135.657 173.275C134.248 176.295 132.949 179.411 131.795 182.537L131.534 183.244L132.242 183.505L133.762 184.066ZM355.28 178.641L355.573 179.336L356.268 179.042L357.761 178.412L358.456 178.119L358.163 177.424C356.871 174.359 355.433 171.308 353.889 168.354L353.54 167.685L352.871 168.035L351.435 168.786L350.767 169.136L351.116 169.804C352.62 172.681 354.021 175.654 355.28 178.641ZM142.612 166.573L142.987 165.918C144.596 163.103 146.343 160.318 148.181 157.64L148.607 157.019L147.986 156.592L146.65 155.674L146.028 155.247L145.601 155.869C143.715 158.617 141.922 161.476 140.27 164.366L139.896 165.021L140.551 165.395L141.958 166.199L142.612 166.573ZM346.237 161.34L346.64 161.978L347.278 161.574L348.647 160.707L349.284 160.304L348.881 159.667C347.101 156.854 345.182 154.08 343.176 151.422L342.721 150.82L342.119 151.274L340.825 152.251L340.224 152.705L340.678 153.307C342.632 155.897 344.503 158.6 346.237 161.34ZM152.976 149.926L153.56 150.403L154.037 149.818C156.086 147.302 158.265 144.84 160.513 142.501L161.035 141.957L160.492 141.435L159.324 140.312L158.78 139.789L158.257 140.333C155.95 142.733 153.714 145.259 151.611 147.841L151.134 148.425L151.719 148.902L152.976 149.926ZM334.479 145.756L334.981 146.319L335.544 145.817L336.753 144.737L337.316 144.235L336.814 143.672C334.597 141.187 332.25 138.764 329.839 136.469L329.292 135.949L328.772 136.496L327.655 137.671L327.136 138.217L327.682 138.737C330.032 140.973 332.319 143.334 334.479 145.756ZM166.501 135.674L167 136.239L167.565 135.74C169.997 133.593 172.547 131.521 175.147 129.58L175.751 129.129L175.3 128.524L174.331 127.225L173.879 126.621L173.275 127.072C170.607 129.064 167.99 131.191 165.495 133.394L164.93 133.893L165.428 134.458L166.501 135.674ZM320.334 132.298L320.921 132.772L321.395 132.184L322.412 130.921L322.884 130.334L322.297 129.861C319.705 127.771 316.994 125.763 314.24 123.893L313.616 123.469L313.192 124.094L312.282 125.435L311.859 126.059L312.483 126.483C315.166 128.304 317.808 130.261 320.334 132.298ZM182.166 123.824L182.566 124.464L183.205 124.063C185.956 122.342 188.81 120.716 191.688 119.23L192.358 118.884L192.013 118.214L191.27 116.773L190.924 116.103L190.253 116.449C187.299 117.974 184.369 119.644 181.546 121.41L180.906 121.81L181.306 122.45L182.166 123.824ZM304.181 121.332L304.838 121.703L305.208 121.046L306.005 119.634L306.375 118.977L305.718 118.606C302.815 116.968 299.811 115.431 296.79 114.041L296.105 113.725L295.789 114.411L295.112 115.884L294.797 116.569L295.482 116.884C298.425 118.239 301.351 119.735 304.181 121.332ZM199.554 114.707L199.843 115.404L200.54 115.114C203.533 113.87 206.615 112.737 209.698 111.747L210.416 111.516L210.186 110.798L209.69 109.254L209.46 108.536L208.741 108.767C205.575 109.784 202.412 110.947 199.339 112.224L198.642 112.514L198.932 113.21L199.554 114.707ZM286.445 113.171L287.154 113.428L287.412 112.719L287.965 111.196L288.222 110.487L287.513 110.229C284.384 109.093 281.168 108.074 277.953 107.201L277.225 107.003L277.027 107.731L276.602 109.295L276.405 110.023L277.133 110.221C280.264 111.072 283.398 112.064 286.445 113.171ZM218.404 106.099L217.67 106.27L217.84 107.004L218.186 108.499V109.362L219.111 109.148C222.266 108.417 225.495 107.808 228.707 107.338L229.453 107.229L229.344 106.483L229.11 104.879L229.001 104.132L228.254 104.241C224.957 104.723 221.643 105.348 218.404 106.099ZM267.607 108.054L268.349 108.191L268.486 107.449L268.779 105.854L268.916 105.113L268.174 104.976C264.907 104.373 261.568 103.9 258.249 103.568L257.499 103.493L257.424 104.243L257.262 105.856L257.187 106.607L257.938 106.682C261.171 107.005 264.424 107.467 267.607 108.054ZM237.619 105.62L237.666 106.373L238.419 106.325C241.652 106.122 244.945 106.048 248.186 106.107L248.941 106.121L248.954 105.367L248.983 103.746L248.997 102.992L248.243 102.978C244.92 102.918 241.539 102.992 238.222 103.202L237.469 103.249L237.517 104.002L237.619 105.62Z" fill="#3F3D56" stroke="#3F3D56" stroke-width="1.50847"/>
<path d="M366.104 233.55L289.888 309.766L291.033 310.912L367.249 234.696L366.104 233.55Z" fill="#3F3D56"/>
<path d="M266.484 320.106H175.5V321.336H266.484V320.106Z" fill="#3F3D56"/>
<path d="M281.239 336.09C278.32 336.09 275.468 335.225 273.042 333.603C270.615 331.982 268.724 329.678 267.607 326.982C266.491 324.286 266.199 321.319 266.768 318.457C267.337 315.595 268.742 312.966 270.806 310.903C272.869 308.84 275.498 307.434 278.36 306.865C281.222 306.296 284.189 306.588 286.885 307.705C289.581 308.821 291.885 310.712 293.506 313.139C295.127 315.565 295.993 318.418 295.993 321.336C295.988 325.247 294.433 328.998 291.667 331.764C288.901 334.53 285.15 336.086 281.239 336.09ZM281.239 308.178C278.636 308.178 276.092 308.949 273.928 310.395C271.764 311.841 270.078 313.896 269.082 316.3C268.086 318.705 267.825 321.35 268.333 323.903C268.841 326.455 270.094 328.8 271.934 330.64C273.774 332.48 276.119 333.733 278.672 334.241C281.224 334.749 283.87 334.488 286.274 333.492C288.678 332.496 290.733 330.81 292.179 328.646C293.625 326.482 294.397 323.938 294.397 321.336C294.393 317.847 293.005 314.503 290.538 312.036C288.072 309.569 284.727 308.181 281.239 308.178Z" fill="#3F3D56"/>
<path d="M142.303 204.532C138.751 204.532 135.234 205.229 131.952 206.584C128.67 207.939 125.688 209.925 123.177 212.428C120.665 214.931 118.672 217.903 117.313 221.174C115.954 224.444 115.254 227.95 115.254 231.49C115.254 246.379 142.303 295.516 142.303 295.516C142.303 295.516 169.353 246.379 169.353 231.49C169.353 227.95 168.653 224.444 167.294 221.174C165.934 217.903 163.942 214.931 161.43 212.428C158.918 209.925 155.936 207.939 152.655 206.584C149.373 205.229 145.856 204.532 142.303 204.532ZM142.303 245.643C139.495 245.643 136.749 244.813 134.414 243.258C132.079 241.703 130.258 239.492 129.184 236.906C128.109 234.32 127.828 231.474 128.375 228.729C128.923 225.984 130.276 223.462 132.262 221.482C134.248 219.503 136.778 218.155 139.533 217.609C142.288 217.063 145.143 217.343 147.738 218.415C150.333 219.486 152.551 221.3 154.111 223.627C155.671 225.955 156.504 228.691 156.504 231.49C156.504 235.244 155.008 238.844 152.345 241.498C149.682 244.152 146.07 245.643 142.303 245.643Z" fill="#F46036"/>
<path d="M366.075 109.859C358.901 109.86 352.021 112.7 346.948 117.755C341.875 122.811 339.026 129.668 339.026 136.818C339.026 151.706 366.075 200.843 366.075 200.843C366.075 200.843 393.124 151.706 393.124 136.818C393.124 133.277 392.425 129.772 391.065 126.501C389.706 123.231 387.713 120.259 385.202 117.755C382.69 115.252 379.708 113.266 376.426 111.912C373.144 110.557 369.627 109.859 366.075 109.859ZM366.075 150.971C363.266 150.971 360.521 150.141 358.185 148.586C355.85 147.03 354.03 144.82 352.955 142.234C351.88 139.648 351.599 136.802 352.147 134.057C352.695 131.311 354.047 128.789 356.033 126.81C358.019 124.831 360.55 123.483 363.304 122.937C366.059 122.391 368.914 122.671 371.509 123.742C374.104 124.813 376.322 126.627 377.882 128.955C379.443 131.282 380.276 134.018 380.276 136.818C380.276 140.571 378.78 144.171 376.116 146.825C373.453 149.48 369.841 150.971 366.075 150.971Z" fill="#F46036"/>
<path d="M387.546 236.878L395.618 236.883L395.618 235.602L387.547 235.597L387.546 236.878Z" fill="#3F3D56"/>
<path d="M329.189 235.886L330.855 236.272L394.144 236.305L394.713 234.979C395.706 232.705 396.047 230.199 395.697 227.742C395.425 225.911 394.742 224.092 393.19 223.301L390.382 204.595L355.367 204.532L341.82 215.459C341.82 215.459 335.429 215.344 331.958 219.666C330.705 221.273 329.966 223.22 329.836 225.253L329.699 227.501L329.189 235.886Z" fill="#F46036"/>
<path d="M343.09 243.389C347.407 243.389 350.906 239.89 350.906 235.574C350.906 231.257 347.407 227.758 343.09 227.758C338.774 227.758 335.275 231.257 335.275 235.574C335.275 239.89 338.774 243.389 343.09 243.389Z" fill="#3F3D56"/>
<path d="M343.091 239.687C345.362 239.687 347.204 237.845 347.204 235.573C347.204 233.302 345.362 231.46 343.091 231.46C340.819 231.46 338.977 233.302 338.977 235.573C338.977 237.845 340.819 239.687 343.091 239.687Z" fill="#CCCCCC"/>
<path d="M381.653 243.409C385.97 243.409 389.469 239.91 389.469 235.594C389.469 231.278 385.97 227.779 381.653 227.779C377.337 227.779 373.838 231.278 373.838 235.594C373.838 239.91 377.337 243.409 381.653 243.409Z" fill="#3F3D56"/>
<path d="M381.653 239.707C383.925 239.707 385.767 237.866 385.767 235.594C385.767 233.322 383.925 231.481 381.653 231.481C379.382 231.481 377.54 233.322 377.54 235.594C377.54 237.866 379.382 239.707 381.653 239.707Z" fill="#CCCCCC"/>
<path d="M347.202 214.181L366.107 214.189H368.415L372.311 214.192V213.908L372.314 210.482L372.317 206.634H369.725L367.417 206.632L363.329 206.629H361.021L356.302 206.626L347.202 214.181Z" fill="white"/>
<path d="M375.388 214.195L385.379 214.201L385.382 212.24V208.814L385.385 206.643H383.922L381.614 206.64L375.391 206.637L375.388 214.195Z" fill="white"/>
<path d="M371.027 222.264L372.308 222.265L372.309 219.831L371.028 219.83L371.027 222.264Z" fill="#3F3D56"/>
<path d="M352.325 217.642L352.325 216.361L349.891 216.36L349.89 217.641L352.325 217.642Z" fill="#3F3D56"/>
<path d="M351.428 216.924L351.287 216.924C350.935 216.924 350.587 216.854 350.262 216.72C349.937 216.585 349.642 216.388 349.394 216.139C349.145 215.89 348.948 215.595 348.814 215.27C348.679 214.945 348.61 214.597 348.611 214.245C348.611 213.893 348.68 213.545 348.815 213.22C348.95 212.896 349.147 212.601 349.396 212.352C349.645 212.104 349.94 211.907 350.265 211.772C350.59 211.638 350.938 211.569 351.29 211.569L351.431 211.569L351.428 216.924Z" fill="#3F3D56"/>
<path d="M329.699 227.501C330.668 227.607 331.643 227.367 332.452 226.824C333.261 226.281 333.853 225.47 334.123 224.533C334.393 223.597 334.324 222.595 333.928 221.705C333.532 220.814 332.834 220.092 331.958 219.666C330.705 221.273 329.966 223.22 329.836 225.253L329.699 227.501Z" fill="#3F3D56"/>
<path d="M367.417 206.632L372.311 213.908L372.314 210.482L369.725 206.635L367.417 206.632Z" fill="#F2F2F2"/>
<path d="M381.614 206.64L385.382 212.24V208.814L383.922 206.643L381.614 206.64Z" fill="#F2F2F2"/>
<path d="M361.021 206.629L366.108 214.189H368.415L363.329 206.629H361.021Z" fill="#F2F2F2"/>
<path d="M125.998 332.78L117.927 332.785L117.926 331.504L125.997 331.499L125.998 332.78Z" fill="#3F3D56"/>
<path d="M184.354 331.788L182.689 332.173L119.4 332.207L118.831 330.881C117.838 328.607 117.497 326.101 117.847 323.644C118.119 321.813 118.802 319.993 120.354 319.203L123.162 300.496L158.177 300.434L171.724 311.36C171.724 311.36 178.114 311.246 181.586 315.568C182.839 317.175 183.578 319.122 183.708 321.155L183.845 323.403L184.354 331.788Z" fill="#F46036"/>
<path d="M170.454 339.29C166.138 339.29 162.639 335.791 162.639 331.475C162.639 327.159 166.138 323.66 170.454 323.66C174.77 323.66 178.269 327.159 178.269 331.475C178.269 335.791 174.77 339.29 170.454 339.29Z" fill="#3F3D56"/>
<path d="M170.454 335.588C168.182 335.588 166.341 333.747 166.341 331.475C166.341 329.204 168.182 327.362 170.454 327.362C172.726 327.362 174.567 329.204 174.567 331.475C174.567 333.747 172.726 335.588 170.454 335.588Z" fill="#CCCCCC"/>
<path d="M131.891 339.311C127.575 339.311 124.076 335.812 124.076 331.496C124.076 327.18 127.575 323.681 131.891 323.681C136.207 323.681 139.706 327.18 139.706 331.496C139.706 335.812 136.207 339.311 131.891 339.311Z" fill="#3F3D56"/>
<path d="M131.891 335.609C129.619 335.609 127.778 333.768 127.778 331.496C127.778 329.224 129.619 327.383 131.891 327.383C134.163 327.383 136.004 329.224 136.004 331.496C136.004 333.768 134.163 335.609 131.891 335.609Z" fill="#CCCCCC"/>
<path d="M166.342 310.084L147.436 310.092H145.129L141.233 310.094V309.81L141.23 306.384L141.227 302.537H143.819L146.127 302.534L150.215 302.531H152.523L157.242 302.528L166.342 310.084Z" fill="white"/>
<path d="M138.156 310.097L128.165 310.103L128.163 308.142V304.716L128.16 302.545H129.623L131.931 302.542L138.154 302.539L138.156 310.097Z" fill="white"/>
<path d="M142.517 318.166L141.236 318.167L141.235 315.733L142.516 315.732L142.517 318.166Z" fill="#3F3D56"/>
<path d="M161.22 313.544L161.219 312.263L163.653 312.262L163.654 313.543L161.22 313.544Z" fill="#3F3D56"/>
<path d="M162.116 312.826L162.257 312.826C162.609 312.826 162.957 312.756 163.282 312.622C163.607 312.487 163.902 312.29 164.15 312.041C164.399 311.792 164.596 311.497 164.73 311.172C164.865 310.847 164.934 310.499 164.934 310.147C164.933 309.795 164.864 309.447 164.729 309.122C164.594 308.798 164.397 308.503 164.148 308.254C163.9 308.006 163.604 307.808 163.279 307.674C162.954 307.54 162.606 307.471 162.255 307.471L162.114 307.471L162.116 312.826Z" fill="#3F3D56"/>
<path d="M183.846 323.403C182.877 323.509 181.902 323.269 181.093 322.726C180.283 322.183 179.691 321.372 179.421 320.435C179.152 319.499 179.221 318.497 179.617 317.607C180.013 316.716 180.71 315.994 181.587 315.568C182.839 317.175 183.578 319.122 183.709 321.155L183.846 323.403Z" fill="#3F3D56"/>
<path d="M146.127 302.534L141.233 309.81L141.23 306.383L143.819 302.536L146.127 302.534Z" fill="#F2F2F2"/>
<path d="M131.931 302.542L128.163 308.142V304.716L129.623 302.545L131.931 302.542Z" fill="#F2F2F2"/>
<path d="M152.523 302.531L147.437 310.091H145.129L150.215 302.531H152.523Z" fill="#F2F2F2"/>
<path d="M230.652 271.153C236.068 271.153 240.458 266.763 240.458 261.348C240.458 255.932 236.068 251.542 230.652 251.542C225.237 251.542 220.847 255.932 220.847 261.348C220.847 266.763 225.237 271.153 230.652 271.153Z" fill="#A4A2BA"/>
<path d="M292.5 228.915C297.915 228.915 302.305 224.525 302.305 219.11C302.305 213.695 297.915 209.305 292.5 209.305C287.085 209.305 282.695 213.695 282.695 219.11C282.695 224.525 287.085 228.915 292.5 228.915Z" fill="#A4A2BA"/>
<path d="M215.568 189.695C220.983 189.695 225.373 185.305 225.373 179.89C225.373 174.475 220.983 170.085 215.568 170.085C210.153 170.085 205.763 174.475 205.763 179.89C205.763 185.305 210.153 189.695 215.568 189.695Z" fill="#A4A2BA"/>
<path d="M383.844 340.542L382.977 340.216C382.786 340.144 363.822 332.843 354.939 316.289C346.055 299.734 350.405 279.802 350.45 279.603L350.655 278.695L351.521 279.021C351.712 279.094 370.675 286.394 379.559 302.948C388.443 319.503 384.093 339.436 384.048 339.635L383.844 340.542ZM356.361 315.518C363.872 329.515 378.858 336.689 382.655 338.327C383.377 334.238 385.641 317.702 378.137 303.719C370.634 289.738 355.642 282.552 351.843 280.91C351.121 285.001 348.858 301.536 356.361 315.518Z" fill="#3F3D56"/>
<path d="M361.113 310.094C377.293 320.073 383.524 339.894 383.524 339.894C383.524 339.894 363.523 343.536 347.343 333.557C331.164 323.578 324.932 303.757 324.932 303.757C324.932 303.757 344.933 300.115 361.113 310.094Z" fill="#F46036"/>
<path d="M131.923 395.421C133.984 395.421 135.443 395.22 136.297 394.818C137.152 394.415 137.58 393.636 137.58 392.48C137.58 391.575 137.026 390.795 135.92 390.141C134.814 389.437 133.13 388.658 130.867 387.803C129.107 387.15 127.498 386.471 126.04 385.767C124.632 385.063 123.425 384.233 122.419 383.278C121.414 382.272 120.634 381.091 120.081 379.733C119.528 378.375 119.252 376.741 119.252 374.83C119.252 371.11 120.634 368.168 123.4 366.006C126.165 363.844 129.962 362.763 134.789 362.763C137.202 362.763 139.515 362.989 141.728 363.441C143.94 363.844 145.7 364.296 147.008 364.799L145.047 373.548C143.739 373.096 142.306 372.693 140.747 372.341C139.239 371.989 137.529 371.813 135.619 371.813C132.099 371.813 130.339 372.794 130.339 374.755C130.339 375.208 130.414 375.61 130.565 375.962C130.716 376.314 131.018 376.666 131.47 377.018C131.923 377.319 132.526 377.671 133.28 378.074C134.085 378.426 135.091 378.828 136.297 379.28C138.761 380.186 140.798 381.091 142.407 381.996C144.016 382.85 145.273 383.806 146.178 384.862C147.133 385.867 147.787 386.999 148.139 388.256C148.541 389.513 148.742 390.971 148.742 392.63C148.742 396.552 147.259 399.519 144.292 401.53C141.376 403.542 137.228 404.547 131.847 404.547C128.328 404.547 125.386 404.246 123.023 403.642C120.71 403.039 119.101 402.536 118.196 402.134L120.081 393.008C121.992 393.762 123.953 394.365 125.964 394.818C127.976 395.22 129.962 395.421 131.923 395.421ZM155.255 383.957C155.255 380.437 155.783 377.37 156.839 374.755C157.945 372.09 159.378 369.878 161.138 368.118C162.898 366.358 164.909 365.025 167.172 364.12C169.485 363.215 171.848 362.763 174.262 362.763C179.894 362.763 184.344 364.497 187.612 367.967C190.88 371.386 192.515 376.439 192.515 383.127C192.515 383.781 192.489 384.51 192.439 385.314C192.389 386.069 192.339 386.747 192.288 387.351H166.795C167.046 389.664 168.128 391.499 170.038 392.857C171.949 394.214 174.513 394.893 177.732 394.893C179.793 394.893 181.804 394.717 183.765 394.365C185.777 393.963 187.411 393.485 188.668 392.932L190.176 402.058C189.573 402.36 188.769 402.662 187.763 402.963C186.757 403.265 185.626 403.517 184.369 403.718C183.162 403.969 181.855 404.17 180.447 404.321C179.039 404.472 177.631 404.547 176.223 404.547C172.653 404.547 169.535 404.019 166.87 402.963C164.256 401.908 162.069 400.475 160.309 398.664C158.599 396.804 157.317 394.617 156.462 392.102C155.658 389.588 155.255 386.873 155.255 383.957ZM181.654 379.658C181.603 378.702 181.427 377.772 181.126 376.867C180.874 375.962 180.447 375.157 179.843 374.453C179.29 373.749 178.561 373.171 177.656 372.719C176.801 372.266 175.72 372.04 174.413 372.04C173.156 372.04 172.075 372.266 171.17 372.719C170.265 373.121 169.51 373.674 168.907 374.378C168.304 375.082 167.826 375.912 167.474 376.867C167.172 377.772 166.946 378.702 166.795 379.658H181.654ZM199.302 383.957C199.302 380.437 199.829 377.37 200.885 374.755C201.992 372.09 203.425 369.878 205.185 368.118C206.944 366.358 208.956 365.025 211.218 364.12C213.531 363.215 215.895 362.763 218.308 362.763C223.94 362.763 228.39 364.497 231.658 367.967C234.927 371.386 236.561 376.439 236.561 383.127C236.561 383.781 236.536 384.51 236.485 385.314C236.435 386.069 236.385 386.747 236.335 387.351H210.841C211.093 389.664 212.174 391.499 214.085 392.857C215.995 394.214 218.56 394.893 221.778 394.893C223.839 394.893 225.851 394.717 227.812 394.365C229.823 393.963 231.457 393.485 232.714 392.932L234.223 402.058C233.619 402.36 232.815 402.662 231.809 402.963C230.804 403.265 229.672 403.517 228.415 403.718C227.208 403.969 225.901 404.17 224.493 404.321C223.085 404.472 221.677 404.547 220.269 404.547C216.699 404.547 213.582 404.019 210.917 402.963C208.302 401.908 206.115 400.475 204.355 398.664C202.645 396.804 201.363 394.617 200.508 392.102C199.704 389.588 199.302 386.873 199.302 383.957ZM225.7 379.658C225.65 378.702 225.474 377.772 225.172 376.867C224.92 375.962 224.493 375.157 223.89 374.453C223.337 373.749 222.607 373.171 221.702 372.719C220.848 372.266 219.766 372.04 218.459 372.04C217.202 372.04 216.121 372.266 215.216 372.719C214.311 373.121 213.557 373.674 212.953 374.378C212.35 375.082 211.872 375.912 211.52 376.867C211.218 377.772 210.992 378.702 210.841 379.658H225.7ZM246.44 403.491V351.223H277.967V357.483H253.756V373.247H275.252V379.431H253.756V403.491H246.44ZM298.265 404.246C293.94 404.145 290.873 403.215 289.063 401.455C287.253 399.695 286.348 396.955 286.348 393.234V346.169L293.362 344.963V392.102C293.362 393.259 293.463 394.214 293.664 394.969C293.865 395.723 294.192 396.326 294.644 396.779C295.097 397.231 295.7 397.583 296.454 397.835C297.209 398.036 298.139 398.212 299.245 398.363L298.265 404.246ZM304.935 383.957C304.935 380.487 305.438 377.47 306.443 374.906C307.449 372.291 308.781 370.129 310.441 368.419C312.1 366.71 314.011 365.428 316.173 364.573C318.335 363.718 320.548 363.291 322.81 363.291C328.09 363.291 332.138 364.95 334.953 368.269C337.769 371.537 339.177 376.54 339.177 383.278C339.177 383.58 339.177 383.982 339.177 384.485C339.177 384.937 339.152 385.365 339.102 385.767H312.251C312.553 389.84 313.734 392.932 315.796 395.044C317.857 397.156 321.075 398.212 325.45 398.212C327.914 398.212 329.975 398.011 331.635 397.608C333.344 397.156 334.627 396.728 335.481 396.326L336.462 402.209C335.607 402.662 334.099 403.139 331.937 403.642C329.825 404.145 327.411 404.397 324.696 404.397C321.277 404.397 318.31 403.894 315.796 402.888C313.332 401.832 311.296 400.399 309.687 398.589C308.077 396.779 306.871 394.642 306.066 392.178C305.312 389.664 304.935 386.923 304.935 383.957ZM331.861 380.11C331.911 376.942 331.107 374.353 329.448 372.341C327.838 370.28 325.601 369.249 322.735 369.249C321.126 369.249 319.693 369.576 318.436 370.23C317.229 370.833 316.198 371.637 315.343 372.643C314.488 373.649 313.81 374.805 313.307 376.113C312.854 377.42 312.553 378.752 312.402 380.11H331.861ZM347.066 383.957C347.066 380.487 347.569 377.47 348.575 374.906C349.58 372.291 350.913 370.129 352.572 368.419C354.231 366.71 356.142 365.428 358.304 364.573C360.466 363.718 362.679 363.291 364.941 363.291C370.221 363.291 374.269 364.95 377.085 368.269C379.9 371.537 381.308 376.54 381.308 383.278C381.308 383.58 381.308 383.982 381.308 384.485C381.308 384.937 381.283 385.365 381.233 385.767H354.382C354.684 389.84 355.865 392.932 357.927 395.044C359.989 397.156 363.207 398.212 367.581 398.212C370.045 398.212 372.107 398.011 373.766 397.608C375.476 397.156 376.758 396.728 377.613 396.326L378.593 402.209C377.738 402.662 376.23 403.139 374.068 403.642C371.956 404.145 369.542 404.397 366.827 404.397C363.408 404.397 360.441 403.894 357.927 402.888C355.463 401.832 353.427 400.399 351.818 398.589C350.209 396.779 349.002 394.642 348.197 392.178C347.443 389.664 347.066 386.923 347.066 383.957ZM373.992 380.11C374.043 376.942 373.238 374.353 371.579 372.341C369.97 370.28 367.732 369.249 364.866 369.249C363.257 369.249 361.824 369.576 360.567 370.23C359.36 370.833 358.329 371.637 357.475 372.643C356.62 373.649 355.941 374.805 355.438 376.113C354.986 377.42 354.684 378.752 354.533 380.11H373.992ZM397.946 364.271H412.805V370.154H397.946V388.256C397.946 390.217 398.097 391.851 398.399 393.158C398.701 394.415 399.153 395.421 399.757 396.175C400.36 396.879 401.114 397.382 402.019 397.684C402.924 397.986 403.98 398.136 405.187 398.136C407.299 398.136 408.983 397.91 410.24 397.458C411.548 396.955 412.453 396.603 412.956 396.402L414.313 402.209C413.609 402.561 412.377 402.989 410.618 403.491C408.858 404.045 406.846 404.321 404.584 404.321C401.919 404.321 399.706 403.994 397.946 403.341C396.237 402.637 394.854 401.606 393.798 400.248C392.742 398.891 391.988 397.231 391.535 395.27C391.133 393.259 390.932 390.946 390.932 388.331V353.335L397.946 352.128V364.271Z" fill="#F46036"/>
<defs>
<filter id="filter0_d" x="0" y="0" width="496" height="514.102" filterUnits="userSpaceOnUse" color-interpolation-filters="sRGB">
<feFlood flood-opacity="0" result="BackgroundImageFix"/>
<feColorMatrix in="SourceAlpha" type="matrix" values="0 0 0 0 0 0 0 0 0 0 0 0 0 0 0 0 0 0 127 0"/>
<feOffset dy="4"/>
<feGaussianBlur stdDeviation="35"/>
<feColorMatrix type="matrix" values="0 0 0 0 0 0 0 0 0 0 0 0 0 0 0 0 0 0 0.3 0"/>
<feBlend mode="normal" in2="BackgroundImageFix" result="effect1_dropShadow"/>
<feBlend mode="normal" in="SourceGraphic" in2="effect1_dropShadow" result="shape"/>
</filter>
</defs>
</svg>
